<svg width="372" height="27" viewBox="0 0 372 27" fill="none" xmlns="http://www.w3.org/2000/svg">
<path d="M0.156 1.4H4.692V12.208C4.692 15.7173 6.148 17.472 9.06 17.472C10.4787 17.472 11.5613 17.052 12.308 16.212C13.0547 15.3533 13.428 14.0187 13.428 12.208V1.4H17.908V12.376C17.908 15.2693 17.1333 17.4907 15.584 19.04C14.0347 20.5707 11.8507 21.336 9.032 21.336C6.21333 21.336 4.02933 20.5707 2.48 19.04C0.930667 17.4907 0.156 15.2693 0.156 12.376V1.4ZM22.0824 14.56V0.223999H26.4504V13.888C26.4504 16.2587 27.4677 17.444 29.5024 17.444C30.6224 17.444 31.4997 17.108 32.1344 16.436C32.7877 15.7453 33.1144 14.728 33.1144 13.384V5.936H37.4824V26.432H33.1144V19.432C32.5357 20.0107 31.8357 20.4587 31.0144 20.776C30.1931 21.0747 29.2971 21.224 28.3264 21.224C27.3931 21.224 26.5437 21.084 25.7784 20.804C25.0131 20.524 24.3504 20.104 23.7904 19.544C23.2491 18.984 22.8291 18.2933 22.5304 17.472C22.2317 16.632 22.0824 15.6613 22.0824 14.56ZM41.3578 14.448V5.936H45.7258V13.804C45.7258 16.2307 46.7431 17.444 48.7778 17.444C49.8418 17.444 50.6818 17.108 51.2978 16.436C51.9324 15.7453 52.2498 14.728 52.2498 13.384V5.936H56.6178V21H52.4738V19.208C51.8951 19.8613 51.2044 20.3653 50.4018 20.72C49.6178 21.056 48.7498 21.224 47.7978 21.224C45.8191 21.224 44.2511 20.664 43.0938 19.544C41.9364 18.4053 41.3578 16.7067 41.3578 14.448ZM60.5804 14.448V0.223999H64.9484V5.936H75.8404V9.296H64.9484V13.804C64.9484 16.2307 65.9658 17.444 68.0004 17.444C69.0644 17.444 69.9044 17.108 70.5204 16.436C71.1551 15.7453 71.4724 14.728 71.4724 13.384V12.096H75.8404V21H71.6964V19.208C71.1178 19.8613 70.4271 20.3653 69.6244 20.72C68.8404 21.056 67.9724 21.224 67.0204 21.224C65.0418 21.224 63.4738 20.664 62.3164 19.544C61.1591 18.4053 60.5804 16.7067 60.5804 14.448ZM80.4191 26.432V5.936H84.7871V23.072H89.3791V26.432H80.4191ZM99.0551 0.223999H103.423V5.936H111.515V13.804C111.515 16.2307 112.532 17.444 114.567 17.444C115.631 17.444 116.471 17.108 117.087 16.436C117.722 15.7453 118.039 14.728 118.039 13.384V5.936H122.407V21H118.263V19.208C117.684 19.8613 116.994 20.3653 116.191 20.72C115.407 21.056 114.539 21.224 113.587 21.224C111.608 21.224 110.04 20.664 108.883 19.544C107.726 18.4053 107.147 16.7067 107.147 14.448V9.296H103.423V26.432H99.0551V0.223999ZM126.317 5.936H130.685V13.888C130.685 15.0827 130.927 15.9787 131.413 16.576C131.917 17.1547 132.626 17.444 133.541 17.444C134.567 17.444 135.379 17.1173 135.977 16.464C136.574 15.792 136.873 14.8027 136.873 13.496V5.936H141.241V13.888C141.241 16.2587 142.193 17.444 144.097 17.444C145.105 17.444 145.907 17.1173 146.505 16.464C147.102 15.792 147.401 14.8027 147.401 13.496V5.936H151.769V21H147.597V19.264C147.037 19.8987 146.346 20.384 145.525 20.72C144.722 21.056 143.835 21.224 142.865 21.224C141.801 21.224 140.839 21.0187 139.981 20.608C139.122 20.1787 138.431 19.5627 137.909 18.76C137.293 19.544 136.509 20.1507 135.557 20.58C134.623 21.0093 133.597 21.224 132.477 21.224C130.573 21.224 129.07 20.6733 127.969 19.572C126.867 18.4707 126.317 16.8 126.317 14.56V5.936ZM164.84 5.712C166.707 5.712 168.209 6.272 169.348 7.392C170.505 8.512 171.084 10.1733 171.084 12.376V23.072H173.996V26.432H166.716V13.048C166.716 11.8533 166.455 10.9667 165.932 10.388C165.409 9.79067 164.653 9.492 163.664 9.492C162.563 9.492 161.685 9.83733 161.032 10.528C160.379 11.2 160.052 12.208 160.052 13.552V21H155.684V5.936H159.856V7.7C160.435 7.06533 161.153 6.58 162.012 6.244C162.871 5.88933 163.813 5.712 164.84 5.712ZM176.547 5.936H180.915V13.888C180.915 15.0827 181.158 15.9787 181.643 16.576C182.147 17.1547 182.857 17.444 183.771 17.444C184.798 17.444 185.61 17.1173 186.207 16.464C186.805 15.792 187.103 14.8027 187.103 13.496V5.936H191.471V13.888C191.471 16.2587 192.423 17.444 194.327 17.444C195.335 17.444 196.138 17.1173 196.735 16.464C197.333 15.792 197.631 14.8027 197.631 13.496V5.936H201.999V21H197.827V19.264C197.267 19.8987 196.577 20.384 195.755 20.72C194.953 21.056 194.066 21.224 193.095 21.224C192.031 21.224 191.07 21.0187 190.211 20.608C189.353 20.1787 188.662 19.5627 188.139 18.76C187.523 19.544 186.739 20.1507 185.787 20.58C184.854 21.0093 183.827 21.224 182.707 21.224C180.803 21.224 179.301 20.6733 178.199 19.572C177.098 18.4707 176.547 16.8 176.547 14.56V5.936ZM215.07 5.712C216.937 5.712 218.44 6.272 219.578 7.392C220.736 8.512 221.314 10.1733 221.314 12.376V21H216.946V13.048C216.946 11.8533 216.685 10.9667 216.162 10.388C215.64 9.79067 214.884 9.492 213.894 9.492C212.793 9.492 211.916 9.83733 211.262 10.528C210.609 11.2 210.282 12.208 210.282 13.552V26.432H205.914V5.936H210.086V7.7C210.665 7.06533 211.384 6.58 212.242 6.244C213.101 5.88933 214.044 5.712 215.07 5.712ZM225.274 14.56V0.223999H229.642V13.888C229.642 16.2587 230.659 17.444 232.694 17.444C233.814 17.444 234.691 17.108 235.326 16.436C235.979 15.7453 236.306 14.728 236.306 13.384V5.936H240.674V26.432H236.306V19.432C235.727 20.0107 235.027 20.4587 234.206 20.776C233.384 21.0747 232.488 21.224 231.518 21.224C230.584 21.224 229.735 21.084 228.97 20.804C228.204 20.524 227.542 20.104 226.982 19.544C226.44 18.984 226.02 18.2933 225.722 17.472C225.423 16.632 225.274 15.6613 225.274 14.56ZM244.633 21V5.936H248.805V7.7C249.384 7.06533 250.103 6.58 250.961 6.244C251.82 5.88933 252.763 5.712 253.789 5.712C254.723 5.712 255.572 5.852 256.337 6.132C257.103 6.412 257.756 6.832 258.297 7.392C258.857 7.952 259.287 8.652 259.585 9.492C259.884 10.3133 260.033 11.2747 260.033 12.376V21H255.665V13.048C255.665 10.6773 254.648 9.492 252.613 9.492C251.493 9.492 250.607 9.83733 249.953 10.528C249.319 11.2 249.001 12.208 249.001 13.552V21H244.633ZM262.369 21V5.936H266.737V17.64H270.489V21H262.369ZM294.591 14.728H291.959V16.772C291.959 17.4067 291.81 18.004 291.511 18.564C291.212 19.1053 290.802 19.572 290.279 19.964C289.756 20.356 289.131 20.664 288.403 20.888C287.675 21.112 286.882 21.224 286.023 21.224C285.146 21.224 284.343 21.112 283.615 20.888C282.887 20.6453 282.262 20.328 281.739 19.936C281.216 19.5253 280.806 19.04 280.507 18.48C280.227 17.92 280.087 17.3133 280.087 16.66C280.087 15.26 280.61 14.1587 281.655 13.356C282.719 12.5533 284.352 12.152 286.555 12.152H287.675C287.675 11.6667 287.526 11.256 287.227 10.92C286.947 10.584 286.574 10.3133 286.107 10.108C285.64 9.884 285.127 9.72533 284.567 9.632C284.026 9.53867 283.484 9.492 282.943 9.492C282.402 9.492 281.832 9.576 281.235 9.744C280.656 9.912 280.124 10.1733 279.639 10.528C279.154 10.864 278.752 11.284 278.435 11.788C278.136 12.292 277.987 12.88 277.987 13.552V26.432H273.619V5.936H277.791V7.7C278.071 7.38267 278.463 7.10267 278.967 6.86C279.471 6.59867 280.022 6.384 280.619 6.216C281.216 6.048 281.823 5.92667 282.439 5.852C283.055 5.75867 283.615 5.712 284.119 5.712C285.034 5.712 285.948 5.852 286.863 6.132C287.778 6.39333 288.608 6.79467 289.355 7.336C290.102 7.85867 290.708 8.52133 291.175 9.324C291.66 10.108 291.922 11.032 291.959 12.096H294.591V14.728ZM286.135 18.228C286.639 18.228 287.003 18.088 287.227 17.808C287.47 17.528 287.591 17.1827 287.591 16.772V14.7H286.947C286.051 14.7 285.388 14.8493 284.959 15.148C284.548 15.428 284.343 15.8667 284.343 16.464C284.343 16.9307 284.492 17.3413 284.791 17.696C285.108 18.0507 285.556 18.228 286.135 18.228ZM296.177 26.656C294.647 26.656 293.48 26.376 292.677 25.816L293.853 22.652C294.357 23.0067 294.973 23.184 295.701 23.184C296.261 23.184 296.7 22.9973 297.017 22.624C297.335 22.2693 297.493 21.728 297.493 21V5.936H301.861V20.972C301.861 22.7267 301.357 24.108 300.349 25.116C299.36 26.1427 297.969 26.656 296.177 26.656ZM305.883 21V5.936H310.055V7.7C310.634 7.06533 311.353 6.58 312.211 6.244C313.07 5.88933 314.013 5.712 315.039 5.712C315.973 5.712 316.822 5.852 317.587 6.132C318.353 6.412 319.006 6.832 319.547 7.392C320.107 7.952 320.537 8.652 320.835 9.492C321.134 10.3133 321.283 11.2747 321.283 12.376V21H316.915V13.048C316.915 10.6773 315.898 9.492 313.863 9.492C312.743 9.492 311.857 9.83733 311.203 10.528C310.569 11.2 310.251 12.208 310.251 13.552V21H305.883ZM323.619 21V5.936H327.987V17.64H331.739V21H323.619ZM342.569 21.224C340.702 21.224 339.19 20.664 338.033 19.544C336.894 18.424 336.325 16.7627 336.325 14.56V3.584H333.413V0.223999H340.693V13.888C340.693 15.0827 340.954 15.9787 341.477 16.576C342 17.1547 342.756 17.444 343.745 17.444C344.846 17.444 345.724 17.108 346.377 16.436C347.03 15.7453 347.357 14.728 347.357 13.384V5.936H351.725V21H347.553V19.236C346.974 19.8707 346.256 20.3653 345.397 20.72C344.538 21.056 343.596 21.224 342.569 21.224ZM359.848 5.936V7.7C360.427 7.06533 361.145 6.58 362.004 6.244C362.863 5.88933 363.805 5.712 364.832 5.712C365.765 5.712 366.615 5.852 367.38 6.132C368.145 6.412 368.799 6.832 369.34 7.392C369.9 7.952 370.329 8.652 370.628 9.492C370.927 10.3133 371.076 11.2747 371.076 12.376V20.272H366.708V13.048C366.708 10.6773 365.691 9.492 363.656 9.492C362.536 9.492 361.649 9.83733 360.996 10.528C360.361 11.2 360.044 12.208 360.044 13.552V23.072H371.076V26.432H355.676V5.936H359.848Z" fill="white"/>
</svg>
