<svg width="435" height="92" viewBox="0 0 435 92" fill="none" xmlns="http://www.w3.org/2000/svg">
<path d="M6.17925 2.6V11.88C6.17925 13.6933 6.59525 15.048 7.42725 15.944C8.28058 16.84 9.43258 17.288 10.8833 17.288C12.4619 17.288 13.7099 16.808 14.6273 15.848C15.5659 14.888 16.0353 13.448 16.0353 11.528V7.784H21.2193V25H16.0353V18.6C15.2673 19.6453 14.3499 20.424 13.2833 20.936C12.2166 21.448 10.9259 21.704 9.41125 21.704C6.74458 21.704 4.67525 20.872 3.20325 19.208C1.73125 17.544 0.99525 15.1547 0.99525 12.04V2.6H6.17925ZM26.054 25V7.784H30.822V9.8C31.4833 9.07467 32.3047 8.52 33.286 8.136C34.2673 7.73067 35.3447 7.528 36.518 7.528C37.5847 7.528 38.5553 7.688 39.43 8.008C40.3047 8.328 41.0513 8.808 41.67 9.448C42.31 10.088 42.8007 10.888 43.142 11.848C43.4833 12.7867 43.654 13.8853 43.654 15.144V25H38.662V15.912C38.662 13.2027 37.4993 11.848 35.174 11.848C33.894 11.848 32.8807 12.2427 32.134 13.032C31.4087 13.8 31.046 14.952 31.046 16.488V25H26.054ZM46.323 25V7.784H51.315V21.16H55.603V25H46.323ZM64.1085 7.784V16.872C64.1085 18.2587 64.4072 19.2827 65.0045 19.944C65.6018 20.6053 66.4658 20.936 67.5965 20.936C68.0658 20.936 68.5138 20.8507 68.9405 20.68C69.3672 20.5093 69.7405 20.2427 70.0605 19.88C70.4018 19.496 70.6685 19.016 70.8605 18.44C71.0738 17.8427 71.1805 17.128 71.1805 16.296V7.784H76.1725V9.8C76.4925 9.43733 76.8232 9.11733 77.1645 8.84C77.5058 8.54133 77.8685 8.296 78.2525 8.104C78.6365 7.912 79.0525 7.77333 79.5005 7.688C79.9698 7.58133 80.5032 7.528 81.1005 7.528C82.1672 7.528 83.1378 7.688 84.0125 8.008C84.8872 8.328 85.6338 8.808 86.2525 9.448C86.8925 10.088 87.3832 10.888 87.7245 11.848C88.0658 12.7867 88.2365 13.8853 88.2365 15.144V25H83.2445V15.912C83.2445 14.5253 82.9458 13.5013 82.3485 12.84C81.7512 12.1787 80.8872 11.848 79.7565 11.848C79.2872 11.848 78.8392 11.9333 78.4125 12.104C77.9858 12.2747 77.6018 12.552 77.2605 12.936C76.9405 13.2987 76.6738 13.7787 76.4605 14.376C76.2685 14.952 76.1725 15.656 76.1725 16.488V25H71.1805V22.984C70.8605 23.3467 70.5298 23.6773 70.1885 23.976C69.8472 24.2533 69.4845 24.488 69.1005 24.68C68.7165 24.872 68.2898 25.0107 67.8205 25.096C67.3725 25.2027 66.8498 25.256 66.2525 25.256C65.1858 25.256 64.2152 25.096 63.3405 24.776C62.4658 24.456 61.7085 23.976 61.0685 23.336C60.4498 22.696 59.9698 21.9067 59.6285 20.968C59.2872 20.008 59.1165 18.8987 59.1165 17.64V7.784H64.1085ZM92.679 7.784H97.671V16.872C97.671 18.2373 97.9483 19.2613 98.503 19.944C99.079 20.6053 99.8897 20.936 100.935 20.936C102.108 20.936 103.036 20.5627 103.719 19.816C104.402 19.048 104.743 17.9173 104.743 16.424V7.784H109.735V16.872C109.735 19.5813 110.823 20.936 112.999 20.936C114.151 20.936 115.068 20.5627 115.751 19.816C116.434 19.048 116.775 17.9173 116.775 16.424V7.784H121.767V25H116.999V23.016C116.359 23.7413 115.57 24.296 114.631 24.68C113.714 25.064 112.7 25.256 111.591 25.256C110.375 25.256 109.276 25.0213 108.295 24.552C107.314 24.0613 106.524 23.3573 105.927 22.44C105.223 23.336 104.327 24.0293 103.239 24.52C102.172 25.0107 100.999 25.256 99.719 25.256C97.543 25.256 95.8257 24.6267 94.567 23.368C93.3083 22.1093 92.679 20.2 92.679 17.64V7.784ZM126.242 17.64V1.256H131.234V16.872C131.234 19.5813 132.396 20.936 134.722 20.936C136.002 20.936 137.004 20.552 137.73 19.784C138.476 18.9947 138.85 17.832 138.85 16.296V7.784H143.842V31.208H138.85V23.208C138.188 23.8693 137.388 24.3813 136.45 24.744C135.511 25.0853 134.487 25.256 133.378 25.256C132.311 25.256 131.34 25.096 130.466 24.776C129.591 24.456 128.834 23.976 128.194 23.336C127.575 22.696 127.095 21.9067 126.754 20.968C126.412 20.008 126.242 18.8987 126.242 17.64ZM153.359 7.784V16.872C153.359 19.5813 154.521 20.936 156.847 20.936C158.127 20.936 159.129 20.552 159.855 19.784C160.601 18.9947 160.975 17.832 160.975 16.296V1.256H165.967V27.368H169.295V31.208H160.975V23.208C160.313 23.8693 159.513 24.3813 158.575 24.744C157.636 25.0853 156.612 25.256 155.503 25.256C154.436 25.256 153.465 25.096 152.591 24.776C151.716 24.456 150.959 23.976 150.319 23.336C149.7 22.696 149.22 21.9067 148.879 20.968C148.537 20.008 148.367 18.8987 148.367 17.64V7.784H153.359ZM172.21 7.784H177.202V16.872C177.202 18.2373 177.48 19.2613 178.034 19.944C178.61 20.6053 179.421 20.936 180.466 20.936C181.64 20.936 182.568 20.5627 183.25 19.816C183.933 19.048 184.274 17.9173 184.274 16.424V7.784H189.266V16.872C189.266 19.5813 190.354 20.936 192.53 20.936C193.682 20.936 194.6 20.5627 195.282 19.816C195.965 19.048 196.306 17.9173 196.306 16.424V7.784H201.298V25H196.53V23.016C195.89 23.7413 195.101 24.296 194.162 24.68C193.245 25.064 192.232 25.256 191.122 25.256C189.906 25.256 188.808 25.0213 187.826 24.552C186.845 24.0613 186.056 23.3573 185.458 22.44C184.754 23.336 183.858 24.0293 182.77 24.52C181.704 25.0107 180.53 25.256 179.25 25.256C177.074 25.256 175.357 24.6267 174.098 23.368C172.84 22.1093 172.21 20.2 172.21 17.64V7.784ZM223.853 11.432H221.933C222.402 12.136 222.765 12.904 223.021 13.736C223.277 14.5467 223.405 15.432 223.405 16.392C223.405 17.672 223.17 18.856 222.701 19.944C222.231 21.032 221.57 21.9707 220.717 22.76C219.885 23.5493 218.893 24.168 217.741 24.616C216.589 25.0427 215.33 25.256 213.965 25.256C212.599 25.256 211.33 25.0427 210.157 24.616C209.005 24.168 208.002 23.5493 207.149 22.76C206.317 21.9707 205.666 21.032 205.197 19.944C204.727 18.856 204.493 17.672 204.493 16.392C204.493 15.4107 204.631 14.4933 204.909 13.64C205.186 12.7653 205.57 11.976 206.061 11.272C206.573 10.568 207.181 9.96 207.885 9.448C208.589 8.91467 209.378 8.488 210.253 8.168L206.317 5.608L205.485 3.048L212.621 0.584L215.213 4.072L213.197 4.904L217.133 7.592H223.853V11.432ZM213.965 21.16C214.605 21.16 215.191 21.0533 215.725 20.84C216.258 20.6053 216.717 20.2853 217.101 19.88C217.506 19.4533 217.815 18.952 218.029 18.376C218.242 17.7787 218.349 17.1173 218.349 16.392C218.349 15.6667 218.242 15.016 218.029 14.44C217.815 13.8427 217.506 13.3413 217.101 12.936C216.717 12.5093 216.258 12.1893 215.725 11.976C215.191 11.7413 214.605 11.624 213.965 11.624C213.325 11.624 212.727 11.7413 212.173 11.976C211.639 12.1893 211.181 12.5093 210.797 12.936C210.413 13.3413 210.103 13.8427 209.869 14.44C209.655 15.016 209.549 15.6667 209.549 16.392C209.549 17.1173 209.655 17.7787 209.869 18.376C210.103 18.952 210.413 19.4533 210.797 19.88C211.181 20.2853 211.639 20.6053 212.173 20.84C212.727 21.0533 213.325 21.16 213.965 21.16ZM234.742 17.64V1.256H239.734V16.872C239.734 19.5813 240.896 20.936 243.222 20.936C244.502 20.936 245.504 20.552 246.23 19.784C246.976 18.9947 247.35 17.832 247.35 16.296V7.784H252.342V31.208H247.35V23.208C246.688 23.8693 245.888 24.3813 244.95 24.744C244.011 25.0853 242.987 25.256 241.878 25.256C240.811 25.256 239.84 25.096 238.966 24.776C238.091 24.456 237.334 23.976 236.694 23.336C236.075 22.696 235.595 21.9067 235.254 20.968C234.912 20.008 234.742 18.8987 234.742 17.64ZM261.859 7.784V16.872C261.859 18.2587 262.157 19.2827 262.755 19.944C263.352 20.6053 264.216 20.936 265.347 20.936C265.816 20.936 266.264 20.8507 266.691 20.68C267.117 20.5093 267.491 20.2427 267.811 19.88C268.152 19.496 268.419 19.016 268.611 18.44C268.824 17.8427 268.931 17.128 268.931 16.296V7.784H273.923V9.8C274.243 9.43733 274.573 9.11733 274.915 8.84C275.256 8.54133 275.619 8.296 276.003 8.104C276.387 7.912 276.803 7.77333 277.251 7.688C277.72 7.58133 278.253 7.528 278.851 7.528C279.917 7.528 280.888 7.688 281.763 8.008C282.637 8.328 283.384 8.808 284.003 9.448C284.643 10.088 285.133 10.888 285.475 11.848C285.816 12.7867 285.987 13.8853 285.987 15.144V25H280.995V15.912C280.995 14.5253 280.696 13.5013 280.099 12.84C279.501 12.1787 278.637 11.848 277.507 11.848C277.037 11.848 276.589 11.9333 276.163 12.104C275.736 12.2747 275.352 12.552 275.011 12.936C274.691 13.2987 274.424 13.7787 274.211 14.376C274.019 14.952 273.923 15.656 273.923 16.488V25H268.931V22.984C268.611 23.3467 268.28 23.6773 267.939 23.976C267.597 24.2533 267.235 24.488 266.851 24.68C266.467 24.872 266.04 25.0107 265.571 25.096C265.123 25.2027 264.6 25.256 264.003 25.256C262.936 25.256 261.965 25.096 261.091 24.776C260.216 24.456 259.459 23.976 258.819 23.336C258.2 22.696 257.72 21.9067 257.379 20.968C257.037 20.008 256.867 18.8987 256.867 17.64V7.784H261.859ZM300.893 7.528C303.026 7.528 304.744 8.168 306.045 9.448C307.368 10.728 308.029 12.6267 308.029 15.144V25H303.037V15.912C303.037 14.5467 302.738 13.5333 302.141 12.872C301.544 12.1893 300.68 11.848 299.549 11.848C298.29 11.848 297.288 12.2427 296.541 13.032C295.794 13.8 295.421 14.952 295.421 16.488V31.208H290.429V7.784H295.197V9.8C295.858 9.07467 296.68 8.52 297.661 8.136C298.642 7.73067 299.72 7.528 300.893 7.528ZM312.554 25V7.784H317.322V9.8C317.983 9.07467 318.805 8.52 319.786 8.136C320.767 7.73067 321.845 7.528 323.018 7.528C324.085 7.528 325.055 7.688 325.93 8.008C326.805 8.328 327.551 8.808 328.17 9.448C328.81 10.088 329.301 10.888 329.642 11.848C329.983 12.7867 330.154 13.8853 330.154 15.144V25H325.162V15.912C325.162 13.2027 323.999 11.848 321.674 11.848C320.394 11.848 319.381 12.2427 318.634 13.032C317.909 13.8 317.546 14.952 317.546 16.488V25H312.554ZM343.543 25.256C341.41 25.256 339.682 24.616 338.359 23.336C337.058 22.056 336.407 20.1573 336.407 17.64V5.096H333.079V1.256H341.399V16.872C341.399 18.2373 341.698 19.2613 342.295 19.944C342.892 20.6053 343.756 20.936 344.887 20.936C346.146 20.936 347.148 20.552 347.895 19.784C348.642 18.9947 349.015 17.832 349.015 16.296V7.784H354.007V25H349.239V22.984C348.578 23.7093 347.756 24.2747 346.775 24.68C345.794 25.064 344.716 25.256 343.543 25.256ZM367.387 25.256C365.253 25.256 363.525 24.616 362.203 23.336C360.901 22.056 360.251 20.1573 360.251 17.64V5.096H356.923V1.256H365.243V16.872C365.243 18.2373 365.541 19.2613 366.139 19.944C366.736 20.6053 367.6 20.936 368.731 20.936C369.989 20.936 370.992 20.552 371.739 19.784C372.485 18.9947 372.859 17.832 372.859 16.296V7.784H377.851V25H373.083V22.984C372.421 23.7093 371.6 24.2747 370.619 24.68C369.637 25.064 368.56 25.256 367.387 25.256ZM382.271 17.512V1.256H387.263V7.784H399.711V11.624H387.263V16.776C387.263 19.5493 388.425 20.936 390.751 20.936C391.967 20.936 392.927 20.552 393.631 19.784C394.356 18.9947 394.719 17.832 394.719 16.296V14.824H399.711V25H394.975V22.952C394.313 23.6987 393.524 24.2747 392.607 24.68C391.711 25.064 390.719 25.256 389.631 25.256C387.369 25.256 385.577 24.616 384.255 23.336C382.932 22.0347 382.271 20.0933 382.271 17.512ZM414.799 7.528C416.933 7.528 418.65 8.168 419.951 9.448C421.274 10.728 421.935 12.6267 421.935 15.144V25H416.943V15.912C416.943 14.5467 416.645 13.5333 416.047 12.872C415.45 12.1893 414.586 11.848 413.455 11.848C412.197 11.848 411.194 12.2427 410.447 13.032C409.701 13.8 409.327 14.952 409.327 16.488V31.208H404.335V7.784H409.103V9.8C409.765 9.07467 410.586 8.52 411.567 8.136C412.549 7.73067 413.626 7.528 414.799 7.528ZM424.476 0.967999H429.852L434.172 5.576H430.268L424.476 0.967999Z" fill="white"/>
<path d="M102.8 71.074C104.42 72.082 105.662 73.324 106.526 74.8C107.426 76.24 107.876 77.896 107.876 79.768C107.876 82.18 107.156 84.304 105.716 86.14C104.312 87.976 102.314 89.398 99.7223 90.406C97.1663 91.378 94.2323 91.864 90.9203 91.864C87.6083 91.864 84.6563 91.378 82.0643 90.406C79.5083 89.398 77.5103 87.976 76.0703 86.14C74.6663 84.304 73.9643 82.18 73.9643 79.768C73.9643 77.896 74.3963 76.24 75.2603 74.8C76.1603 73.324 77.4203 72.082 79.0403 71.074C76.5563 69.094 75.3143 66.61 75.3143 63.622C75.3143 61.354 75.9623 59.374 77.2583 57.682C78.5903 55.99 80.4263 54.676 82.7663 53.74C85.1423 52.804 87.8603 52.336 90.9203 52.336C93.9803 52.336 96.6803 52.804 99.0203 53.74C101.396 54.676 103.232 55.99 104.528 57.682C105.86 59.374 106.526 61.354 106.526 63.622C106.526 66.61 105.284 69.094 102.8 71.074ZM90.9203 60.922C90.0203 60.922 89.2823 61.21 88.7063 61.786C88.1663 62.362 87.8963 63.154 87.8963 64.162C87.8963 65.17 88.1663 65.962 88.7063 66.538C89.2823 67.114 90.0203 67.402 90.9203 67.402C91.8203 67.402 92.5403 67.114 93.0803 66.538C93.6563 65.962 93.9443 65.17 93.9443 64.162C93.9443 63.154 93.6563 62.362 93.0803 61.786C92.5403 61.21 91.8203 60.922 90.9203 60.922ZM90.9203 83.278C92.1443 83.278 93.1343 82.918 93.8903 82.198C94.6823 81.478 95.0783 80.524 95.0783 79.336C95.0783 78.148 94.6823 77.194 93.8903 76.474C93.1343 75.754 92.1443 75.394 90.9203 75.394C89.6963 75.394 88.6883 75.754 87.8963 76.474C87.1403 77.194 86.7623 78.148 86.7623 79.336C86.7623 80.524 87.1403 81.478 87.8963 82.198C88.6883 82.918 89.6963 83.278 90.9203 83.278ZM125.196 52.336C128.832 52.336 132 53.038 134.7 54.442C137.436 55.846 139.56 57.934 141.072 60.706C142.584 63.478 143.34 66.88 143.34 70.912C143.34 75.232 142.458 78.976 140.694 82.144C138.966 85.312 136.518 87.724 133.35 89.38C130.218 91.036 126.564 91.864 122.388 91.864C120.12 91.864 117.96 91.594 115.908 91.054C113.856 90.55 112.11 89.83 110.67 88.894L115.26 79.984C117.132 81.316 119.418 81.982 122.118 81.982C124.314 81.982 126.114 81.442 127.518 80.362C128.958 79.246 129.894 77.644 130.326 75.556C128.346 76.96 125.844 77.662 122.82 77.662C120.516 77.662 118.374 77.158 116.394 76.15C114.414 75.142 112.83 73.72 111.642 71.884C110.454 70.048 109.86 67.942 109.86 65.566C109.86 62.938 110.526 60.616 111.858 58.6C113.226 56.584 115.08 55.036 117.42 53.956C119.76 52.876 122.352 52.336 125.196 52.336ZM126.06 68.86C127.212 68.86 128.148 68.518 128.868 67.834C129.588 67.114 129.948 66.16 129.948 64.972C129.948 63.784 129.588 62.848 128.868 62.164C128.148 61.48 127.212 61.138 126.06 61.138C124.908 61.138 123.972 61.48 123.252 62.164C122.532 62.848 122.172 63.784 122.172 64.972C122.172 66.16 122.532 67.114 123.252 67.834C123.972 68.518 124.908 68.86 126.06 68.86ZM146.155 76.42L162.193 53.2H175.261L161.005 74.638H166.135V68.86H178.123V74.638H183.145V84.52H178.123V91H165.757V84.52H146.155V76.42ZM200.366 66.538C205.658 66.538 209.546 67.654 212.03 69.886C214.55 72.082 215.81 74.98 215.81 78.58C215.81 80.956 215.18 83.152 213.92 85.168C212.696 87.148 210.788 88.768 208.196 90.028C205.604 91.252 202.382 91.864 198.53 91.864C195.866 91.864 193.202 91.576 190.538 91C187.91 90.424 185.606 89.578 183.626 88.462L187.946 79.066C189.53 79.966 191.186 80.65 192.914 81.118C194.678 81.586 196.388 81.82 198.044 81.82C199.52 81.82 200.708 81.568 201.608 81.064C202.544 80.524 203.012 79.786 203.012 78.85C203.012 77.95 202.598 77.284 201.77 76.852C200.942 76.384 199.448 76.15 197.288 76.15H186.326L188.216 53.2H213.326V62.812H198.692L198.422 66.538H200.366ZM238.876 66.538C241.18 66.538 243.322 67.042 245.302 68.05C247.282 69.058 248.866 70.48 250.054 72.316C251.242 74.152 251.836 76.258 251.836 78.634C251.836 81.262 251.152 83.584 249.784 85.6C248.452 87.616 246.616 89.164 244.276 90.244C241.936 91.324 239.344 91.864 236.5 91.864C232.864 91.864 229.678 91.162 226.942 89.758C224.242 88.354 222.136 86.266 220.624 83.494C219.112 80.722 218.356 77.32 218.356 73.288C218.356 68.968 219.22 65.224 220.948 62.056C222.712 58.888 225.16 56.476 228.292 54.82C231.46 53.164 235.132 52.336 239.308 52.336C241.576 52.336 243.736 52.606 245.788 53.146C247.84 53.65 249.586 54.37 251.026 55.306L246.436 64.216C244.564 62.884 242.278 62.218 239.578 62.218C237.382 62.218 235.564 62.776 234.124 63.892C232.72 64.972 231.802 66.556 231.37 68.644C233.35 67.24 235.852 66.538 238.876 66.538ZM235.636 83.062C236.788 83.062 237.724 82.72 238.444 82.036C239.164 81.352 239.524 80.416 239.524 79.228C239.524 78.04 239.164 77.104 238.444 76.42C237.724 75.7 236.788 75.34 235.636 75.34C234.484 75.34 233.548 75.7 232.828 76.42C232.108 77.104 231.748 78.04 231.748 79.228C231.748 80.416 232.108 81.352 232.828 82.036C233.548 82.72 234.484 83.062 235.636 83.062ZM284.297 81.118V91H254.003V83.17L267.665 70.534C268.853 69.418 269.645 68.464 270.041 67.672C270.437 66.88 270.635 66.106 270.635 65.35C270.635 64.414 270.311 63.694 269.663 63.19C269.051 62.65 268.151 62.38 266.963 62.38C265.811 62.38 264.731 62.686 263.723 63.298C262.715 63.91 261.941 64.774 261.401 65.89L251.789 61.084C253.229 58.384 255.335 56.26 258.107 54.712C260.879 53.128 264.227 52.336 268.151 52.336C271.139 52.336 273.785 52.822 276.089 53.794C278.393 54.766 280.193 56.152 281.489 57.952C282.785 59.752 283.433 61.822 283.433 64.162C283.433 66.25 282.983 68.212 282.083 70.048C281.219 71.848 279.509 73.9 276.953 76.204L271.553 81.118H284.297ZM315.531 71.074C317.151 72.082 318.393 73.324 319.257 74.8C320.157 76.24 320.607 77.896 320.607 79.768C320.607 82.18 319.887 84.304 318.447 86.14C317.043 87.976 315.045 89.398 312.453 90.406C309.897 91.378 306.963 91.864 303.651 91.864C300.339 91.864 297.387 91.378 294.795 90.406C292.239 89.398 290.241 87.976 288.801 86.14C287.397 84.304 286.695 82.18 286.695 79.768C286.695 77.896 287.127 76.24 287.991 74.8C288.891 73.324 290.151 72.082 291.771 71.074C289.287 69.094 288.045 66.61 288.045 63.622C288.045 61.354 288.693 59.374 289.989 57.682C291.321 55.99 293.157 54.676 295.497 53.74C297.873 52.804 300.591 52.336 303.651 52.336C306.711 52.336 309.411 52.804 311.751 53.74C314.127 54.676 315.963 55.99 317.259 57.682C318.591 59.374 319.257 61.354 319.257 63.622C319.257 66.61 318.015 69.094 315.531 71.074ZM303.651 60.922C302.751 60.922 302.013 61.21 301.437 61.786C300.897 62.362 300.627 63.154 300.627 64.162C300.627 65.17 300.897 65.962 301.437 66.538C302.013 67.114 302.751 67.402 303.651 67.402C304.551 67.402 305.271 67.114 305.811 66.538C306.387 65.962 306.675 65.17 306.675 64.162C306.675 63.154 306.387 62.362 305.811 61.786C305.271 61.21 304.551 60.922 303.651 60.922ZM303.651 83.278C304.875 83.278 305.865 82.918 306.621 82.198C307.413 81.478 307.809 80.524 307.809 79.336C307.809 78.148 307.413 77.194 306.621 76.474C305.865 75.754 304.875 75.394 303.651 75.394C302.427 75.394 301.419 75.754 300.627 76.474C299.871 77.194 299.493 78.148 299.493 79.336C299.493 80.524 299.871 81.478 300.627 82.198C301.419 82.918 302.427 83.278 303.651 83.278ZM323.184 76.42L339.222 53.2H352.29L338.034 74.638H343.164V68.86H355.152V74.638H360.174V84.52H355.152V91H342.786V84.52H323.184V76.42Z" fill="#82DADC"/>
</svg>
