<svg width="1237" height="65" viewBox="0 0 1237 65" fill="none" xmlns="http://www.w3.org/2000/svg">
<path d="M0.720031 3.4H12.62L27.104 37.4L41.792 3.4H52.74L32.136 51H21.256L0.720031 3.4ZM74.3704 51.544C70.5171 51.544 67.0491 50.7507 63.9664 49.164C60.9291 47.532 58.5491 45.288 56.8264 42.432C55.1037 39.576 54.2424 36.3347 54.2424 32.708C54.2424 29.0813 55.1037 25.84 56.8264 22.984C58.5491 20.128 60.9291 17.9067 63.9664 16.32C67.0491 14.688 70.5171 13.872 74.3704 13.872C78.2237 13.872 81.6691 14.688 84.7064 16.32C87.7437 17.9067 90.1237 20.128 91.8464 22.984C93.5691 25.84 94.4304 29.0813 94.4304 32.708C94.4304 36.3347 93.5691 39.576 91.8464 42.432C90.1237 45.288 87.7437 47.532 84.7064 49.164C81.6691 50.7507 78.2237 51.544 74.3704 51.544ZM74.3704 42.84C77.0904 42.84 79.3117 41.9333 81.0344 40.12C82.8024 38.2613 83.6864 35.7907 83.6864 32.708C83.6864 29.6253 82.8024 27.1773 81.0344 25.364C79.3117 23.5053 77.0904 22.576 74.3704 22.576C71.6504 22.576 69.4064 23.5053 67.6384 25.364C65.8704 27.1773 64.9864 29.6253 64.9864 32.708C64.9864 35.7907 65.8704 38.2613 67.6384 40.12C69.4064 41.9333 71.6504 42.84 74.3704 42.84ZM101.521 0.543997H112.129V51H101.521V0.543997ZM121.974 51V0.543997H132.582V29.104L148.086 14.416H160.734L145.502 29.92L162.094 51H149.242L137.682 36.652L132.582 41.684V51H121.974ZM179.173 51.544C176.135 51.544 173.166 51.1813 170.265 50.456C167.363 49.6853 165.051 48.7333 163.329 47.6L166.865 39.984C168.497 41.0267 170.469 41.888 172.781 42.568C175.093 43.2027 177.359 43.52 179.581 43.52C184.069 43.52 186.313 42.4093 186.313 40.188C186.313 39.1453 185.701 38.3973 184.477 37.944C183.253 37.4907 181.371 37.1053 178.833 36.788C175.841 36.3347 173.37 35.8133 171.421 35.224C169.471 34.6347 167.771 33.592 166.321 32.096C164.915 30.6 164.213 28.4693 164.213 25.704C164.213 23.392 164.87 21.352 166.185 19.584C167.545 17.7707 169.494 16.3653 172.033 15.368C174.617 14.3707 177.654 13.872 181.145 13.872C183.729 13.872 186.29 14.1667 188.829 14.756C191.413 15.3 193.543 16.0707 195.221 17.068L191.685 24.616C188.466 22.8027 184.953 21.896 181.145 21.896C178.878 21.896 177.178 22.2133 176.045 22.848C174.911 23.4827 174.345 24.2987 174.345 25.296C174.345 26.4293 174.957 27.2227 176.181 27.676C177.405 28.1293 179.354 28.56 182.029 28.968C185.021 29.4667 187.469 30.0107 189.373 30.6C191.277 31.144 192.931 32.164 194.337 33.66C195.742 35.156 196.445 37.2413 196.445 39.916C196.445 42.1827 195.765 44.2 194.405 45.968C193.045 47.736 191.05 49.1187 188.421 50.116C185.837 51.068 182.754 51.544 179.173 51.544ZM198.162 14.416H208.158L216.794 39.168L225.77 14.416H234.746L243.45 39.168L252.358 14.416H261.742L248.482 51H238.282L230.054 28.288L221.554 51H211.354L198.162 14.416ZM281.429 13.872C287.096 13.872 291.448 15.232 294.485 17.952C297.523 20.6267 299.041 24.684 299.041 30.124V51H289.113V46.444C287.119 49.844 283.401 51.544 277.961 51.544C275.151 51.544 272.703 51.068 270.617 50.116C268.577 49.164 267.013 47.8493 265.925 46.172C264.837 44.4947 264.293 42.5907 264.293 40.46C264.293 37.06 265.563 34.3853 268.101 32.436C270.685 30.4867 274.652 29.512 280.001 29.512H288.433C288.433 27.2 287.731 25.432 286.325 24.208C284.92 22.9387 282.812 22.304 280.001 22.304C278.052 22.304 276.125 22.6213 274.221 23.256C272.363 23.8453 270.776 24.6613 269.461 25.704L265.653 18.292C267.648 16.8867 270.028 15.7987 272.793 15.028C275.604 14.2573 278.483 13.872 281.429 13.872ZM280.613 44.404C282.427 44.404 284.036 43.996 285.441 43.18C286.847 42.3187 287.844 41.072 288.433 39.44V35.7H281.157C276.805 35.7 274.629 37.128 274.629 39.984C274.629 41.344 275.151 42.432 276.193 43.248C277.281 44.0187 278.755 44.404 280.613 44.404ZM346.382 14.416V44.88C346.382 51.5893 344.637 56.576 341.146 59.84C337.655 63.104 332.555 64.736 325.846 64.736C322.31 64.736 318.955 64.3053 315.782 63.444C312.609 62.5827 309.979 61.336 307.894 59.704L312.11 52.088C313.651 53.3573 315.601 54.3547 317.958 55.08C320.315 55.8507 322.673 56.236 325.03 56.236C328.702 56.236 331.399 55.3973 333.122 53.72C334.89 52.088 335.774 49.5947 335.774 46.24V44.676C333.009 47.7133 329.155 49.232 324.214 49.232C320.859 49.232 317.777 48.5067 314.966 47.056C312.201 45.56 310.002 43.4747 308.37 40.8C306.738 38.1253 305.922 35.0427 305.922 31.552C305.922 28.0613 306.738 24.9787 308.37 22.304C310.002 19.6293 312.201 17.5667 314.966 16.116C317.777 14.62 320.859 13.872 324.214 13.872C329.518 13.872 333.553 15.6173 336.318 19.108V14.416H346.382ZM326.322 40.528C329.133 40.528 331.422 39.712 333.19 38.08C335.003 36.4027 335.91 34.2267 335.91 31.552C335.91 28.8773 335.003 26.724 333.19 25.092C331.422 23.4147 329.133 22.576 326.322 22.576C323.511 22.576 321.199 23.4147 319.386 25.092C317.573 26.724 316.666 28.8773 316.666 31.552C316.666 34.2267 317.573 36.4027 319.386 38.08C321.199 39.712 323.511 40.528 326.322 40.528ZM392.091 32.844C392.091 32.98 392.023 33.932 391.887 35.7H364.211C364.71 37.9667 365.889 39.7573 367.747 41.072C369.606 42.3867 371.918 43.044 374.683 43.044C376.587 43.044 378.265 42.772 379.715 42.228C381.211 41.6387 382.594 40.732 383.863 39.508L389.507 45.628C386.062 49.572 381.03 51.544 374.411 51.544C370.286 51.544 366.637 50.7507 363.463 49.164C360.29 47.532 357.842 45.288 356.119 42.432C354.397 39.576 353.535 36.3347 353.535 32.708C353.535 29.1267 354.374 25.908 356.051 23.052C357.774 20.1507 360.109 17.9067 363.055 16.32C366.047 14.688 369.379 13.872 373.051 13.872C376.633 13.872 379.874 14.6427 382.775 16.184C385.677 17.7253 387.943 19.9467 389.575 22.848C391.253 25.704 392.091 29.036 392.091 32.844ZM373.119 21.896C370.717 21.896 368.699 22.576 367.067 23.936C365.435 25.296 364.438 27.1547 364.075 29.512H382.095C381.733 27.2 380.735 25.364 379.103 24.004C377.471 22.5987 375.477 21.896 373.119 21.896ZM399.154 51V14.416H409.286V18.7C410.691 17.1587 412.436 15.98 414.522 15.164C416.607 14.3027 418.896 13.872 421.39 13.872C423.656 13.872 425.719 14.212 427.578 14.892C429.436 15.572 431.023 16.592 432.338 17.952C433.698 19.312 434.74 21.012 435.466 23.052C436.191 25.0467 436.554 27.3813 436.554 30.056V51H425.946V31.688C425.946 25.9307 423.475 23.052 418.534 23.052C415.814 23.052 413.66 23.8907 412.074 25.568C410.532 27.2 409.762 29.648 409.762 32.912V51H399.154ZM463.917 3.4H474.933V51H463.917V3.4ZM486.23 3.4H507.854C513.022 3.4 517.578 4.39733 521.522 6.392C525.511 8.34133 528.594 11.1067 530.77 14.688C532.991 18.2693 534.102 22.44 534.102 27.2C534.102 31.96 532.991 36.1307 530.77 39.712C528.594 43.2933 525.511 46.0813 521.522 48.076C517.578 50.0253 513.022 51 507.854 51H486.23V3.4ZM507.31 41.956C512.07 41.956 515.855 40.6413 518.666 38.012C521.522 35.3373 522.95 31.7333 522.95 27.2C522.95 22.6667 521.522 19.0853 518.666 16.456C515.855 13.7813 512.07 12.444 507.31 12.444H497.246V41.956H507.31ZM545.674 51.544C543.815 51.544 542.251 50.9093 540.982 49.64C539.712 48.3707 539.078 46.784 539.078 44.88C539.078 42.9307 539.712 41.3667 540.982 40.188C542.251 38.964 543.815 38.352 545.674 38.352C547.532 38.352 549.096 38.964 550.366 40.188C551.635 41.3667 552.27 42.9307 552.27 44.88C552.27 46.784 551.635 48.3707 550.366 49.64C549.096 50.9093 547.532 51.544 545.674 51.544ZM556.671 33.592L579.111 3.4H590.671L569.863 32.028H582.647V23.12H593.051V32.028H600.803V41.004H593.051V51H582.307V41.004H556.671V33.592ZM623.341 0.543997H633.949V14.416H653.601V33.524C653.601 39.4173 656.072 42.364 661.013 42.364C663.597 42.364 665.637 41.548 667.133 39.916C668.675 38.2387 669.445 35.768 669.445 32.504V14.416H680.053V51H669.989V46.648C668.584 48.2347 666.907 49.4587 664.957 50.32C663.053 51.136 660.945 51.544 658.633 51.544C653.828 51.544 650.02 50.184 647.209 47.464C644.399 44.6987 642.993 40.5733 642.993 35.088V22.576H633.949V64.192H623.341V0.543997ZM689.548 14.416H700.156V33.728C700.156 36.6293 700.746 38.8053 701.924 40.256C703.148 41.6613 704.871 42.364 707.092 42.364C709.586 42.364 711.558 41.5707 713.008 39.984C714.459 38.352 715.184 35.9493 715.184 32.776V14.416H725.792V33.728C725.792 39.4853 728.104 42.364 732.728 42.364C735.176 42.364 737.126 41.5707 738.576 39.984C740.027 38.352 740.752 35.9493 740.752 32.776V14.416H751.36V51H741.228V46.784C739.868 48.3253 738.191 49.504 736.196 50.32C734.247 51.136 732.094 51.544 729.736 51.544C727.152 51.544 724.818 51.0453 722.732 50.048C720.647 49.0053 718.97 47.5093 717.7 45.56C716.204 47.464 714.3 48.9373 711.988 49.98C709.722 51.0227 707.228 51.544 704.508 51.544C699.884 51.544 696.235 50.2067 693.56 47.532C690.886 44.8573 689.548 40.8 689.548 35.36V14.416ZM783.105 13.872C787.638 13.872 791.287 15.232 794.053 17.952C796.863 20.672 798.269 24.7067 798.269 30.056V56.032H805.341V64.192H787.661V31.688C787.661 28.7867 787.026 26.6333 785.757 25.228C784.487 23.7773 782.651 23.052 780.249 23.052C777.574 23.052 775.443 23.8907 773.857 25.568C772.27 27.2 771.477 29.648 771.477 32.912V51H760.869V14.416H771.001V18.7C772.406 17.1587 774.151 15.98 776.237 15.164C778.322 14.3027 780.611 13.872 783.105 13.872ZM811.537 14.416H822.145V33.728C822.145 36.6293 822.734 38.8053 823.913 40.256C825.137 41.6613 826.859 42.364 829.081 42.364C831.574 42.364 833.546 41.5707 834.997 39.984C836.447 38.352 837.173 35.9493 837.173 32.776V14.416H847.781V33.728C847.781 39.4853 850.093 42.364 854.717 42.364C857.165 42.364 859.114 41.5707 860.565 39.984C862.015 38.352 862.741 35.9493 862.741 32.776V14.416H873.349V51H863.217V46.784C861.857 48.3253 860.179 49.504 858.185 50.32C856.235 51.136 854.082 51.544 851.725 51.544C849.141 51.544 846.806 51.0453 844.721 50.048C842.635 49.0053 840.958 47.5093 839.689 45.56C838.193 47.464 836.289 48.9373 833.977 49.98C831.71 51.0227 829.217 51.544 826.497 51.544C821.873 51.544 818.223 50.2067 815.549 47.532C812.874 44.8573 811.537 40.8 811.537 35.36V14.416ZM905.093 13.872C909.626 13.872 913.276 15.232 916.041 17.952C918.852 20.672 920.257 24.7067 920.257 30.056V51H909.649V31.688C909.649 28.7867 909.014 26.6333 907.745 25.228C906.476 23.7773 904.64 23.052 902.237 23.052C899.562 23.052 897.432 23.8907 895.845 25.568C894.258 27.2 893.465 29.648 893.465 32.912V64.192H882.857V14.416H892.989V18.7C894.394 17.1587 896.14 15.98 898.225 15.164C900.31 14.3027 902.6 13.872 905.093 13.872ZM929.873 35.36V0.543997H940.481V33.728C940.481 39.4853 942.951 42.364 947.893 42.364C950.613 42.364 952.743 41.548 954.285 39.916C955.871 38.2387 956.665 35.768 956.665 32.504V14.416H967.273V64.192H956.665V47.192C955.259 48.5973 953.559 49.6853 951.565 50.456C949.57 51.1813 947.394 51.544 945.037 51.544C942.77 51.544 940.707 51.204 938.849 50.524C936.99 49.844 935.381 48.824 934.021 47.464C932.706 46.104 931.686 44.4267 930.961 42.432C930.235 40.392 929.873 38.0347 929.873 35.36ZM976.888 51V14.416H987.02V18.7C988.426 17.1587 990.171 15.98 992.256 15.164C994.342 14.3027 996.631 13.872 999.124 13.872C1001.39 13.872 1003.45 14.212 1005.31 14.892C1007.17 15.572 1008.76 16.592 1010.07 17.952C1011.43 19.312 1012.47 21.012 1013.2 23.052C1013.93 25.0467 1014.29 27.3813 1014.29 30.056V51H1003.68V31.688C1003.68 25.9307 1001.21 23.052 996.268 23.052C993.548 23.052 991.395 23.8907 989.808 25.568C988.267 27.2 987.496 29.648 987.496 32.912V51H976.888ZM1019.96 51V14.416H1030.57V42.84H1039.68V51H1019.96ZM1098.21 35.768H1091.82V40.732C1091.82 42.2733 1091.46 43.724 1090.73 45.084C1090.01 46.3987 1089.01 47.532 1087.74 48.484C1086.47 49.436 1084.95 50.184 1083.19 50.728C1081.42 51.272 1079.49 51.544 1077.41 51.544C1075.28 51.544 1073.33 51.272 1071.56 50.728C1069.79 50.1387 1068.27 49.368 1067 48.416C1065.73 47.4187 1064.74 46.24 1064.01 44.88C1063.33 43.52 1062.99 42.0467 1062.99 40.46C1062.99 37.06 1064.26 34.3853 1066.8 32.436C1069.38 30.4867 1073.35 29.512 1078.7 29.512H1081.42C1081.42 28.3333 1081.06 27.336 1080.33 26.52C1079.65 25.704 1078.74 25.0467 1077.61 24.548C1076.48 24.004 1075.23 23.6187 1073.87 23.392C1072.56 23.1653 1071.24 23.052 1069.93 23.052C1068.61 23.052 1067.23 23.256 1065.78 23.664C1064.37 24.072 1063.08 24.7067 1061.9 25.568C1060.72 26.384 1059.75 27.404 1058.98 28.628C1058.25 29.852 1057.89 31.28 1057.89 32.912V64.192H1047.28V14.416H1057.41V18.7C1058.09 17.9293 1059.05 17.2493 1060.27 16.66C1061.49 16.0253 1062.83 15.504 1064.28 15.096C1065.73 14.688 1067.21 14.3933 1068.7 14.212C1070.2 13.9853 1071.56 13.872 1072.78 13.872C1075 13.872 1077.22 14.212 1079.45 14.892C1081.67 15.5267 1083.68 16.5013 1085.5 17.816C1087.31 19.0853 1088.78 20.6947 1089.92 22.644C1091.1 24.548 1091.73 26.792 1091.82 29.376H1098.21V35.768ZM1077.68 44.268C1078.9 44.268 1079.79 43.928 1080.33 43.248C1080.92 42.568 1081.21 41.7293 1081.21 40.732V35.7H1079.65C1077.47 35.7 1075.86 36.0627 1074.82 36.788C1073.82 37.468 1073.33 38.5333 1073.33 39.984C1073.33 41.1173 1073.69 42.1147 1074.41 42.976C1075.18 43.8373 1076.27 44.268 1077.68 44.268ZM1102.07 64.736C1098.35 64.736 1095.52 64.056 1093.57 62.696L1096.42 55.012C1097.65 55.8733 1099.14 56.304 1100.91 56.304C1102.27 56.304 1103.34 55.8507 1104.11 54.944C1104.88 54.0827 1105.26 52.768 1105.26 51V14.416H1115.87V50.932C1115.87 55.1933 1114.65 58.548 1112.2 60.996C1109.8 63.4893 1106.42 64.736 1102.07 64.736ZM1125.64 51V14.416H1135.77V18.7C1137.18 17.1587 1138.92 15.98 1141.01 15.164C1143.09 14.3027 1145.38 13.872 1147.87 13.872C1150.14 13.872 1152.2 14.212 1154.06 14.892C1155.92 15.572 1157.51 16.592 1158.82 17.952C1160.18 19.312 1161.22 21.012 1161.95 23.052C1162.68 25.0467 1163.04 27.3813 1163.04 30.056V51H1152.43V31.688C1152.43 25.9307 1149.96 23.052 1145.02 23.052C1142.3 23.052 1140.14 23.8907 1138.56 25.568C1137.02 27.2 1136.25 29.648 1136.25 32.912V51H1125.64ZM1168.71 51V14.416H1179.32V42.84H1188.43V51H1168.71ZM1214.73 51.544C1210.2 51.544 1206.53 50.184 1203.72 47.464C1200.95 44.744 1199.57 40.7093 1199.57 35.36V8.704H1192.5V0.543997H1210.18V33.728C1210.18 36.6293 1210.81 38.8053 1212.08 40.256C1213.35 41.6613 1215.19 42.364 1217.59 42.364C1220.26 42.364 1222.39 41.548 1223.98 39.916C1225.57 38.2387 1226.36 35.768 1226.36 32.504V14.416H1236.97V51H1226.84V46.716C1225.43 48.2573 1223.69 49.4587 1221.6 50.32C1219.51 51.136 1217.23 51.544 1214.73 51.544Z" fill="white"/>
</svg>
