<svg width="242" height="82" viewBox="0 0 242 82" fill="none" xmlns="http://www.w3.org/2000/svg">
<g clip-path="url(#clip0_7_8)">
<path d="M60.2403 16.5843V33.9172H75.4735V16.5843H91.9762V65.4158H75.4735V47.4495H60.2403V65.4733H43.7377V16.5843H60.2403ZM205.071 65.4158V16.5843H242V29.0225H221.285V34.7233H242V46.5857H221.285V53.0351H242V65.4733H205.071V65.4158ZM167.796 16.5843V34.3203L183.895 16.5843H201.84L182.279 38.0632L202.821 65.4158H183.722L171.489 49.2346L167.796 53.3806V65.4733H151.582V16.5843H167.796ZM124.693 49.5225L121.75 42.9579L118.807 49.5225H124.693ZM121.75 16.5843H127.463L148.87 65.4158H131.79L130.001 61.3849H113.499L111.71 65.4158H94.6304L116.038 16.5843H121.75ZM16.041 66.5674C12.0019 66.5674 8.02051 66.1068 4.21221 65.1854C2.71197 64.8399 1.32713 64.4368 0.0577015 63.9761V49.5225C2.36576 50.8469 5.02003 51.941 7.9051 52.7472C10.7902 53.5534 13.5598 53.9565 16.2141 53.9565C18.5222 53.9565 20.1378 53.7261 21.1187 53.2655C22.0997 52.8048 22.5613 52.1714 22.5613 51.25C22.5613 50.2135 21.9266 49.4649 20.6571 48.9467C19.3877 48.4284 17.2527 47.8526 14.31 47.2767C10.5594 46.4705 7.38579 45.6644 4.84692 44.743C3.05818 44.1672 1.44254 43.2458 0 42.0365V21.2486C1.55794 19.809 3.46209 18.5998 5.77015 17.6208C9.17454 16.1812 13.3867 15.4326 18.2337 15.4326C21.5804 15.4326 24.8693 15.7781 28.1583 16.5267C31.3896 17.2753 34.2747 18.3118 36.6981 19.6939L31.7358 31.6714C26.9466 29.2528 22.3882 28.0436 18.1183 28.0436C13.8484 28.0436 11.7711 29.0801 11.7711 31.0955C11.7711 32.0745 12.4058 32.8231 13.6753 33.2837C14.9447 33.7444 17.0219 34.3203 19.907 34.8385C23.6576 35.5295 26.7735 36.3357 29.3701 37.257C31.9089 38.1784 34.1593 39.618 36.0634 41.691C37.9676 43.7641 38.8908 46.5281 38.8908 50.0408C38.8908 53.0927 38.0253 55.9144 36.2942 58.3905C34.5632 60.8666 31.9666 62.882 28.5622 64.3216C25.1001 65.8188 20.8879 66.5674 16.041 66.5674Z" fill="#E3DCD2"/>
<path fill-rule="evenodd" clip-rule="evenodd" d="M0 8.29214V12.4382H91.9762V8.29214H0ZM242 77.8539V82H183.722V77.8539H242ZM242 73.7079V69.5618H151.524V73.7079H242ZM0 4.14607V0H60.2403V4.14607H0Z" fill="#F04E4D"/>
</g>
<defs>
<clipPath id="clip0_7_8">
<rect width="242" height="82" fill="white"/>
</clipPath>
</defs>
</svg>
